<!-- <svg height="24" viewBox="0 0 24 24" width="24" xmlns="http://www.w3.org/2000/svg"><path d="m20.247634 1c1.0125221 0 1.8333334.82081129 1.8333334 1.83333333s-.8208113 1.83333334-1.8333334 1.83333334c-.3158442 0-.6130339-.07986936-.8724738-.22051281l-3.0249251 3.47961717c.1346337.25513483.2108509.5458717.2108509.85441003 0 1.01252204-.8208113 1.83333334-1.8333334 1.83333334-.9820883 0-1.7838173-.7722101-1.8311257-1.74256896l-2.2033918-.75849737c-.336256.40778098-.84535009.66773299-1.41515923.66773299-.32712483 0-.63423886-.08567643-.90012689-.2358141l-2.87560465 2.41277624c.05416355.1730906.08335496.3572185.08335496.5481644 0 1.012522-.8208113 1.8333333-1.83333334 1.8333333s-1.83333333-.8208113-1.83333333-1.8333333c0-1.0125221.82081129-1.83333335 1.83333333-1.83333335.33090488 0 .64133381.08766791.90932763.24104456l2.86960725-2.40787374c-.05621505-.1760311-.0865583-.3636207-.0865583-.55829735 0-1.01252204.8208113-1.83333333 1.83333334-1.83333333.97577423 0 1.77350093.76231258 1.83011983 1.7238777l2.2160025.76325559c.336304-.39976002.8402621-.65379996 1.4035544-.65379996.2130474 0 .4176071.03634016.6078186.10315996l3.1693503-3.64581344c-.0588143-.17965899-.0906208-.37154554-.0906208-.57086091 0-1.01252204.8208113-1.83333333 1.8333333-1.83333333z" opacity=".48"/><path d="m21.1666667 9.60855714c.506261 0 .9166666.41040566.9166666.91666666v10.7540685c0 .2761423-.2238576.5-.5.5h-2.6666666c-.2761424 0-.5-.2238577-.5-.5v-10.7540685c0-.506261.4104056-.91666666.9166666-.91666666zm-5.5 6.42549146c.506261 0 .9166666.4104057.9166666.9166667v4.328577c0 .2761423-.2238576.5-.5.5h-2.6666666c-.2761424 0-.5-.2238577-.5-.5v-4.328577c0-.506261.4104056-.9166667.9166666-.9166667zm-5.5-1.8405511c.506261 0 .9166666.4104057.9166666.9166667v6.1691281c0 .2761423-.2238576.5-.5.5h-2.66666663c-.27614238 0-.5-.2238577-.5-.5v-6.1691281c0-.506261.41040564-.9166667.91666666-.9166667zm-5.50000003 4.7135227c.50626102 0 .91666666.4104057.91666666.9166667v1.4556054c0 .2761423-.22385762.5-.5.5h-2.66666666c-.27614238 0-.5-.2238577-.5-.5v-1.4556054c0-.506261.41040564-.9166667.91666666-.9166667z"/></svg> -->


<svg xmlns="http://www.w3.org/2000/svg" height="24" viewBox="0 0 24 24" width="24" fill="currentColor" class="bi bi-file-earmark-pdf-fill" >
  <path d="M5.523 12.424c.14-.082.293-.162.459-.238a7.878 7.878 0 0 1-.45.606c-.28.337-.498.516-.635.572a.266.266 0 0 1-.035.012.282.282 0 0 1-.026-.044c-.056-.11-.054-.216.04-.36.106-.165.319-.354.647-.548zm2.455-1.647c-.119.025-.237.05-.356.078a21.148 21.148 0 0 0 .5-1.05 12.045 12.045 0 0 0 .51.858c-.217.032-.436.07-.654.114zm2.525.939a3.881 3.881 0 0 1-.435-.41c.228.005.434.022.612.054.317.057.466.147.518.209a.095.095 0 0 1 .026.064.436.436 0 0 1-.06.2.307.307 0 0 1-.094.124.107.107 0 0 1-.069.015c-.09-.003-.258-.066-.498-.256zM8.278 6.97c-.04.244-.108.524-.2.829a4.86 4.86 0 0 1-.089-.346c-.076-.353-.087-.63-.046-.822.038-.177.11-.248.196-.283a.517.517 0 0 1 .145-.04c.013.03.028.092.032.198.005.122-.007.277-.038.465z"/>
  <path fill-rule="evenodd" d="M4 0h5.293A1 1 0 0 1 10 .293L13.707 4a1 1 0 0 1 .293.707V14a2 2 0 0 1-2 2H4a2 2 0 0 1-2-2V2a2 2 0 0 1 2-2zm5.5 1.5v2a1 1 0 0 0 1 1h2l-3-3zM4.165 13.668c.09.18.23.343.438.419.207.075.412.04.58-.03.318-.13.635-.436.926-.786.333-.401.683-.927 1.021-1.51a11.651 11.651 0 0 1 1.997-.406c.3.383.61.713.91.95.28.22.603.403.934.417a.856.856 0 0 0 .51-.138c.155-.101.27-.247.354-.416.09-.181.145-.37.138-.563a.844.844 0 0 0-.2-.518c-.226-.27-.596-.4-.96-.465a5.76 5.76 0 0 0-1.335-.05 10.954 10.954 0 0 1-.98-1.686c.25-.66.437-1.284.52-1.794.036-.218.055-.426.048-.614a1.238 1.238 0 0 0-.127-.538.7.7 0 0 0-.477-.365c-.202-.043-.41 0-.601.077-.377.15-.576.47-.651.823-.073.34-.04.736.046 1.136.088.406.238.848.43 1.295a19.697 19.697 0 0 1-1.062 2.227 7.662 7.662 0 0 0-1.482.645c-.37.22-.699.48-.897.787-.21.326-.275.714-.08 1.103z"/>
</svg>